# xmcd
#
# Track frame offsets:
#	150
#	6020
#	31460
#	64924
#	96673
#	114767
#	135132
#	161467
#	198995
#	219490
#	241527
#	266135
#
# Disc length: 3769 seconds
#
# Revision: 1
# Processed by: cddbd v1.5.1PL0 Copyright (c) Steve Scherf et al.
# Submitted via: EasyCDDAExtractor 8.0.2.1
#
DISCID=990eb70c
DTITLE=Ozzy Osbourne - Tweeter Center Tinley Park 10-08-02 Disc 2
DYEAR=2002
DGENRE=Hard Rock
TTITLE0=Band Intro
TTITLE1=Suicide Solution
TTITLE2=Zakk's Solo
TTITLE3=No More Tears
TTITLE4=Iron Man
TTITLE5=I Don't Want To Change The World
TTITLE6=Road To Nowhere
TTITLE7=Crazy Train
TTITLE8=Mama I'm Coming Home
TTITLE9=Bark At The Moon
TTITLE10=Paranoid
TTITLE11=Dreamer Outro
EXTD=
EXTT0=
EXTT1=
EXTT2=
EXTT3=
EXTT4=
EXTT5=
EXTT6=
EXTT7=
EXTT8=
EXTT9=
EXTT10=
EXTT11=
PLAYORDER=
